<svg width="48" height="48" viewBox="0 0 48 48" fill="none" xmlns="http://www.w3.org/2000/svg">
<g clip-path="url(#clip0_7322_447)">
<path d="M43.6506 22.2822C43.0751 22.2864 42.505 22.3962 41.9678 22.6064L36.2275 17.8217C36.3687 17.3001 36.4692 16.7589 36.4692 16.1886C36.4692 12.8103 33.8026 10.095 30.4848 10.095C27.167 10.095 24.5003 12.8103 24.5003 16.1886C24.5003 17.1538 24.7397 18.0532 25.1275 18.8625L18.164 27.2424C17.8852 27.1893 17.6025 27.1607 17.319 27.1571C16.8905 27.1571 16.4859 27.2302 16.0934 27.3374L9.9581 21.0903C10.0658 20.693 10.1376 20.281 10.1376 19.8447C10.1376 17.1441 8.00238 14.9699 5.35006 14.9699C2.69775 14.9699 0.5625 17.1441 0.5625 19.8447C0.5625 22.5454 2.69775 24.7196 5.35006 24.7196C5.77855 24.7196 6.1831 24.6465 6.57568 24.5393L12.7109 30.7864C12.5959 31.1914 12.5355 31.6104 12.5314 32.032C12.5314 34.7327 14.6667 36.9069 17.319 36.9069C19.9713 36.9069 22.1065 34.7327 22.1065 32.032C22.1065 31.4543 21.9916 30.9107 21.8121 30.3964L28.7852 22.0068C29.3286 22.1676 29.8911 22.2822 30.4848 22.2822C31.4295 22.2769 32.3593 22.0421 33.1969 21.5973L38.9396 26.382C38.8946 26.638 38.869 26.8971 38.863 27.1571C38.863 29.8578 40.9983 32.032 43.6506 32.032C46.3029 32.032 48.4381 29.8578 48.4381 27.1571C48.4381 24.4564 46.3029 22.2822 43.6506 22.2822Z" fill="#00A0C1"/>
</g>
<defs>
<clipPath id="clip0_7322_447">
<rect width="48" height="48" fill="white"/>
</clipPath>
</defs>
</svg>
