<svg width="48" height="48" viewBox="0 0 48 48" fill="none" xmlns="http://www.w3.org/2000/svg">
<g clip-path="url(#clip0_7322_435)">
<g clip-path="url(#clip1_7322_435)">
<path d="M24.3406 22.8022C28.6448 22.8022 31.9925 19.3069 31.9925 15.0171C31.9925 10.7273 28.4854 7.39087 24.1812 7.39087C19.877 7.39087 16.5293 10.8862 16.5293 15.0171C16.5293 19.3069 20.0364 22.8022 24.3406 22.8022ZM24.1812 10.5685C24.3406 10.5685 24.3406 10.5685 24.1812 10.5685C26.7318 10.5685 28.8042 12.6339 28.8042 15.176C28.8042 17.7181 26.7318 19.6246 24.1812 19.6246C21.6306 19.6246 19.7176 17.5592 19.7176 15.176C19.7176 12.6339 21.79 10.5685 24.1812 10.5685Z" fill="#00A0C1"/>
<path d="M47.9335 21.8487C44.9046 19.1477 40.9193 17.7178 36.7745 17.8767H35.4992C35.1804 19.1477 34.7021 20.2599 34.0645 21.2132C35.0209 21.0543 35.818 21.0543 36.7745 21.0543C39.8034 20.8954 42.8323 21.8487 45.2235 23.5964V35.0357H48.4118V22.3253L47.9335 21.8487Z" fill="#00A0C1"/>
<path d="M33.1088 7.70814C33.9058 5.80158 36.1376 4.8483 38.21 5.6427C40.123 6.4371 41.0795 8.66141 40.2824 10.7269C39.6448 12.1568 38.21 13.1101 36.7753 13.1101C36.4565 13.1101 35.9782 13.1101 35.6594 12.9512C35.8188 13.7456 35.8188 14.54 35.8188 15.1755V16.1288C36.1376 16.1288 36.4565 16.2876 36.7753 16.2876C40.7607 16.2876 43.949 13.1101 43.949 9.29693C43.949 5.32494 40.7607 2.14734 36.9347 2.14734C34.3841 2.14734 32.1523 3.41838 30.877 5.6427C31.674 6.11934 32.4711 6.75486 33.1088 7.70814Z" fill="#00A0C1"/>
<path d="M14.9352 21.3721C14.2975 20.4189 13.8193 19.3067 13.5005 18.0357H12.2252C8.08037 17.8768 4.09501 19.3067 1.06613 21.8488L0.587891 22.3254V35.0358H3.77618V23.5965C6.32681 21.8488 9.19628 20.8955 12.2252 21.0544C13.1816 21.0544 14.1381 21.2133 14.9352 21.3721Z" fill="#00A0C1"/>
<path d="M12.2246 16.1294C12.5435 16.1294 12.8623 16.1294 13.1811 15.9705V15.0172C13.1811 14.2228 13.1811 13.4284 13.3405 12.7929C13.0217 12.9518 12.5435 12.9518 12.2246 12.9518C10.1522 12.9518 8.39869 11.2041 8.39869 9.13868C8.39869 7.07324 10.1522 5.32556 12.2246 5.32556C13.8188 5.32556 15.2535 6.27884 15.8912 7.70876C16.5288 6.91436 17.4853 6.11996 18.2824 5.48444C16.21 2.14796 11.9058 1.0358 8.5581 3.10124C5.2104 5.16668 4.09449 9.45644 6.16688 12.7929C7.4422 14.8584 9.674 16.1294 12.2246 16.1294Z" fill="#00A0C1"/>
<path d="M37.4128 31.3816L37.094 30.905C33.9057 27.4096 29.4421 25.3442 24.6596 25.5031C19.8772 25.3442 15.2542 27.4096 12.0659 30.905L11.7471 31.3816V43.4565C11.7471 44.8864 12.863 46.1574 14.4571 46.1574H34.8622C36.2969 46.1574 37.5722 44.8864 37.5722 43.4565V31.3816H37.4128ZM34.2245 42.9798H14.9354V32.4938C17.486 29.9517 20.9931 28.6807 24.6596 28.6807C28.1668 28.5218 31.6739 29.9517 34.2245 32.4938V42.9798Z" fill="#00A0C1"/>
</g>
</g>
<defs>
<clipPath id="clip0_7322_435">
<rect width="48" height="48" fill="white"/>
</clipPath>
<clipPath id="clip1_7322_435">
<rect width="48" height="44.2105" fill="white" transform="translate(0.5 2)"/>
</clipPath>
</defs>
</svg>
