<svg width="48" height="48" viewBox="0 0 48 48" fill="none" xmlns="http://www.w3.org/2000/svg">
<g clip-path="url(#clip0_7322_454)">
<path d="M15.5647 33.9949C14.7537 33.1802 15.1765 33.4099 13.2202 32.8839C12.3326 32.6449 11.5523 32.1855 10.8467 31.6352L6.61218 42.0639C6.20245 43.0736 6.96778 44.1705 8.05232 44.1292L12.9701 43.9408L16.3525 47.5296C17.0991 48.3208 18.4095 48.0742 18.8193 47.0646L23.6773 35.1002C22.6655 35.6664 21.5427 35.9983 20.3817 35.9983C18.5617 35.9983 16.8518 35.2867 15.5647 33.9949ZM42.2282 42.0639L37.9937 31.6352C37.2881 32.1864 36.5078 32.6449 35.6202 32.8839C33.6537 33.4127 34.0849 33.1821 33.2757 33.9949C31.9886 35.2867 30.2778 35.9983 28.4578 35.9983C27.2967 35.9983 26.1739 35.6655 25.1622 35.1002L30.0202 47.0646C30.4299 48.0742 31.7413 48.3208 32.487 47.5296L35.8703 43.9408L40.7881 44.1292C41.8726 44.1705 42.6379 43.0727 42.2282 42.0639ZM31.0469 31.8733C32.473 30.4155 32.6363 30.5411 34.6673 29.9852C35.9637 29.6299 36.9773 28.5939 37.3245 27.2683C38.0226 24.6058 37.8415 24.9274 39.7465 22.9792C40.6957 22.0089 41.0662 20.5942 40.719 19.2686C40.0218 16.608 40.0209 16.9792 40.719 14.3158C41.0662 12.9902 40.6957 11.5755 39.7465 10.6052C37.8415 8.65706 38.0226 8.97769 37.3245 6.31613C36.9773 4.9905 35.9637 3.95456 34.6673 3.59925C32.0651 2.88581 32.3787 3.07238 30.4719 1.12331C29.5227 0.153002 28.1386 -0.226685 26.8422 0.128627C24.241 0.841127 24.6041 0.842064 21.9982 0.128627C20.7018 -0.226685 19.3177 0.152065 18.3685 1.12331C16.4635 3.07144 16.7771 2.88581 14.1741 3.59925C12.8777 3.95456 11.8641 4.9905 11.5169 6.31613C10.8197 8.97769 10.9998 8.65706 9.09485 10.6052C8.14565 11.5755 7.77418 12.9902 8.12232 14.3158C8.81952 16.9746 8.82045 16.6033 8.12232 19.2677C7.77512 20.5933 8.14565 22.008 9.09485 22.9792C10.9998 24.9274 10.8187 24.6058 11.5169 27.2683C11.8641 28.5939 12.8777 29.6299 14.1741 29.9852C16.2629 30.5571 16.4187 30.4671 17.7935 31.8733C19.0283 33.1361 20.9519 33.3621 22.4359 32.4189C23.0293 32.0405 23.7177 31.8396 24.4207 31.8396C25.1236 31.8396 25.812 32.0405 26.4054 32.4189C27.8885 33.3621 29.8121 33.1361 31.0469 31.8733ZM15.6151 16.4946C15.6151 11.523 19.5575 7.49269 24.4202 7.49269C29.2829 7.49269 33.2253 11.523 33.2253 16.4946C33.2253 21.4661 29.2829 25.4964 24.4202 25.4964C19.5575 25.4964 15.6151 21.4661 15.6151 16.4946Z" fill="#00A0C1"/>
</g>
<defs>
<clipPath id="clip0_7322_454">
<rect width="35.84" height="48" fill="white" transform="translate(6.5)"/>
</clipPath>
</defs>
</svg>
