<svg width="48" height="48" viewBox="0 0 48 48" fill="none" xmlns="http://www.w3.org/2000/svg">
<g clip-path="url(#clip0_7322_461)">
<g clip-path="url(#clip1_7322_461)">
<path d="M43.0886 12.5253H38.019V7.45567C38.019 6.55931 37.6629 5.69966 37.0291 5.06583C36.3953 4.43201 35.5356 4.07593 34.6393 4.07593H14.3608C13.4644 4.07593 12.6048 4.43201 11.9709 5.06583C11.3371 5.69966 10.981 6.55931 10.981 7.45567V12.5253H5.91142C4.56687 12.5253 3.27739 13.0594 2.32665 14.0102C1.37592 14.9609 0.841797 16.2504 0.841797 17.5949V41.2531C0.841797 42.1495 1.19788 43.0092 1.8317 43.643C2.46553 44.2768 3.32518 44.6329 4.22154 44.6329H44.7785C45.6749 44.6329 46.5345 44.2768 47.1683 43.643C47.8022 43.0092 48.1582 42.1495 48.1582 41.2531V17.5949C48.1582 16.2504 47.6241 14.9609 46.6734 14.0102C45.7227 13.0594 44.4332 12.5253 43.0886 12.5253ZM14.3608 7.45567H34.6393V12.5253H14.3608V7.45567ZM44.7785 41.2531H4.22154V26.0443H17.7405V34.4936H31.2595V26.0443H44.7785V41.2531ZM21.1203 26.0443H27.8798V31.1139H21.1203V26.0443ZM4.22154 22.6645V17.5949C4.22154 17.1467 4.39958 16.7169 4.7165 16.4C5.03341 16.0831 5.46323 15.905 5.91142 15.905H43.0886C43.5368 15.905 43.9666 16.0831 44.2836 16.4C44.6005 16.7169 44.7785 17.1467 44.7785 17.5949V22.6645H4.22154Z" fill="#00A0C1"/>
</g>
</g>
<defs>
<clipPath id="clip0_7322_461">
<rect width="48" height="48" fill="white"/>
</clipPath>
<clipPath id="clip1_7322_461">
<rect width="48" height="40.7089" fill="white" transform="translate(0.5 4)"/>
</clipPath>
</defs>
</svg>
