<svg width="104" height="62" viewBox="0 0 104 62" fill="none" xmlns="http://www.w3.org/2000/svg">
<g clip-path="url(#clip0_7322_560)">
<path d="M29.3877 22.4887C29.2711 26.1267 31.1049 27.7378 31.1502 28.7609C31.1286 28.9692 31.0571 29.1693 30.9415 29.3445C30.826 29.5197 30.6698 29.6649 30.486 29.768L28.4125 31.2072C28.1442 31.3937 27.8279 31.5007 27.5005 31.5156C27.4308 31.5124 26.1738 31.8095 24.1829 27.4021C22.9682 28.9054 21.4227 30.1133 19.6648 30.9332C17.9068 31.7531 15.9829 32.1633 14.0404 32.1324C11.4032 32.2753 4.25602 30.6483 4.62374 23.1038C4.36618 16.9552 10.1413 13.1357 16.114 13.4585C17.2641 13.4617 19.613 13.5179 23.7261 14.4656V11.9567C24.1618 7.70665 21.3447 4.40908 16.4671 4.9038C16.0783 4.9054 13.3244 4.82349 9.04132 6.52768C7.84904 7.07058 7.69677 6.98064 7.29988 6.98064C6.09951 6.98064 6.59359 3.53048 6.82362 3.09359C7.66761 2.06561 12.6327 0.14618 17.5055 0.173486C20.7636 -0.112216 24.0042 0.884799 26.5269 2.94903C27.5524 4.08636 28.3347 5.41798 28.8267 6.86347C29.3187 8.30895 29.5101 9.83831 29.3894 11.3592L29.3877 22.4887ZM15.3882 27.6912C20.6417 27.6157 22.8659 24.4836 23.3729 22.7971C23.7714 21.1828 23.705 20.1613 23.705 18.396C22.1385 18.0234 19.8836 17.617 17.2965 17.6138C14.8423 17.4307 10.3599 18.5181 10.5349 22.7955C10.334 25.4923 12.3363 27.839 15.3882 27.6912ZM43.0762 31.3935C41.8029 31.5092 41.21 30.6129 41.0221 29.7279L32.9548 3.28152C32.7977 2.83499 32.694 2.374 32.6438 1.90338C32.614 1.70936 32.6632 1.51155 32.7804 1.35343C32.8977 1.19531 33.0734 1.08982 33.2691 1.06012C33.308 1.05369 32.9241 1.06012 36.8735 1.06012C38.2958 0.91877 38.7591 2.02867 38.9065 2.72577L44.6929 25.3461L50.0646 2.72577C50.1505 2.20856 50.5409 0.947683 52.1381 1.081H54.9179C55.2695 1.05209 56.7177 1.00069 56.972 2.74665L62.3859 25.6561L68.3586 2.74665C68.4363 2.39649 68.7992 0.920377 70.4127 1.081H73.6072C73.7449 1.06012 74.6034 0.950895 74.4576 2.45913C74.388 2.75628 75.01 0.746906 65.9125 29.7488C65.7262 30.6338 65.1317 31.5301 63.8584 31.4144H60.8307C59.0585 31.5991 58.8042 29.8628 58.7766 29.6877L53.4049 7.66167L48.0948 29.6652C48.0689 29.8403 47.8145 31.5766 46.0407 31.3919H43.0762V31.3935ZM87.3783 32.2978C86.4257 32.2994 81.8834 32.2496 78.0863 30.3238C77.7081 30.165 77.3859 29.8984 77.1606 29.5578C76.9354 29.2173 76.8172 28.818 76.8211 28.4108V26.6841C76.8211 25.3269 77.8255 25.5758 78.2515 25.738C79.8779 26.3902 80.9212 26.8849 82.9186 27.28C88.8556 28.4895 91.467 26.9106 92.1069 26.5604C94.2371 25.306 94.4055 22.4357 92.9573 20.9467C91.2596 19.5348 90.4497 19.4818 84.3506 17.5736C83.5989 17.3664 77.2715 15.3876 77.2569 9.16349C77.1581 4.62753 81.3148 0.139755 88.5187 0.176698C90.5712 0.175092 96.0401 0.840066 97.5207 2.68561C97.7394 3.02131 97.8479 3.41644 97.8317 3.81639V5.44027C97.8317 6.15343 97.5693 6.51001 97.0428 6.51001C95.7938 6.37188 93.5778 4.71587 89.0792 4.78333C87.9631 4.72551 82.6173 4.9295 82.857 8.79406C82.7874 11.8394 87.1677 12.9815 87.6682 13.1132C93.5745 14.8752 95.5492 15.1675 97.8933 17.8644C100.67 21.4382 99.173 25.6224 98.5979 26.7692C95.5071 32.7909 87.5143 32.301 87.3783 32.2978ZM93.8904 49.1406C82.546 57.448 66.0777 61.8699 52.0166 61.8699C33.044 61.994 14.7108 55.0768 0.620879 42.478C-0.43694 41.532 0.496144 40.2358 1.78237 40.957C17.4123 49.8219 35.1086 54.4799 53.115 54.4685C66.5616 54.397 79.8616 51.6922 92.251 46.5097C94.1593 45.7065 95.7776 47.7625 93.8904 49.1406ZM98.619 43.7935C97.1675 41.9432 89.016 42.9294 85.3663 43.3615C84.2663 43.4851 84.0801 42.5391 85.0763 41.8404C91.5674 37.3157 102.228 38.6119 103.453 40.133C104.676 41.6541 103.121 52.2455 97.0444 57.305C96.1113 58.0873 95.2188 57.6745 95.6335 56.6465C97.0007 53.2333 100.07 45.6455 98.619 43.7935Z" fill="#737373"/>
</g>
<defs>
<clipPath id="clip0_7322_560">
<rect width="104" height="62" fill="white"/>
</clipPath>
</defs>
</svg>
