<svg width="103" height="34" viewBox="0 0 103 34" fill="none" xmlns="http://www.w3.org/2000/svg">
<g clip-path="url(#clip0_7322_548)">
<path d="M23.2553 31.9249L29.4193 32.0526C27.2949 31.3183 25.2349 30.4244 23.2553 29.3709V31.9249ZM32.5414 31.0789V31.9249L29.4193 32.0526C35.2935 34.0479 40.6688 34.3192 44.66 33.2019C41.4574 33.2338 37.2891 32.7868 32.5414 31.0789ZM98.3488 12.6901C100.908 12.6901 103 10.631 103 8.07697C103 5.52298 100.924 4.16617 98.3488 4.16617C95.7899 4.16617 93.6977 5.53894 93.6977 8.07697C93.6977 10.615 95.7738 12.6901 98.3488 12.6901ZM93.6816 31.9249H103V14.2864H93.6816V31.9249ZM81.8205 31.9249H91.1388V0.750208L81.8205 5.10796V31.9249ZM76.8314 12.8657C73.9024 9.96054 68.7202 10.1361 68.7202 10.1361C68.7202 10.1361 63.5219 9.96054 60.6089 12.8657C57.6799 15.7709 57.9052 18.277 57.9052 21.2619C57.9052 24.2469 57.6799 26.7371 60.6089 29.6422C63.538 32.5474 68.7202 32.3718 68.7202 32.3718C68.7202 32.3718 73.9185 32.5474 76.8314 29.6422C79.7605 26.7371 79.5352 24.2469 79.5352 21.2619C79.5191 18.261 79.7444 15.7549 76.8314 12.8657ZM70.4261 24.3427C70.4261 24.9173 70.1364 26.338 68.7041 26.338C67.2718 26.338 66.9821 24.9173 66.9821 24.3427V17.8939C66.9821 16.5051 68.1569 16.154 68.7041 16.154C69.2513 16.154 70.4261 16.4892 70.4261 17.8939V24.3427ZM53.3346 12.8657C50.4055 9.96054 45.2233 10.1361 45.2233 10.1361C45.2233 10.1361 40.0411 9.96054 37.1121 12.8657C36.8063 13.169 36.5166 13.4882 36.2591 13.8235C30.1113 9.09857 24.5911 6.40091 19.8274 4.0704V0.766171L16.2063 2.45819C7.45129 -1.06951 1.88285 -0.446975 0.547068 2.47415C0.547068 2.47415 -3.46028 7.70983 10.493 20.1605V31.9249H19.8113V27.3596C18.7652 26.6892 17.7191 25.9709 16.6891 25.1887C14.3072 23.4009 12.2794 21.7408 10.5091 20.1765V15.2281C12.6174 17.5746 15.4177 20.2404 19.1032 23.2573L19.8274 23.8319V19.0751C19.8274 17.9737 20.101 16.1699 21.5655 16.1699C23.03 16.1699 23.2714 17.2713 23.2714 18.5643V26.338C26.1683 28.2854 29.2744 29.8657 32.5575 31.0629V16.0742C32.5575 13.0892 30.401 10.1042 26.0235 10.1042C23.4807 10.0882 21.1149 11.4131 19.8274 13.6V4.93237C26.5707 8.26852 33.33 12.3549 35.905 14.2385C34.2635 16.569 34.4083 18.7239 34.4083 21.2141C34.4083 24.199 34.183 26.6892 37.1121 29.5943C40.0411 32.4995 45.2233 32.3239 45.2233 32.3239C45.2233 32.3239 50.4216 32.4995 53.3346 29.5943C56.2636 26.6892 56.0222 24.199 56.0222 21.2141C56.0222 18.261 56.2636 15.7549 53.3346 12.8657ZM10.493 5.10796V15.2122C2.65535 6.51265 4.23254 3.08072 4.82801 2.58589C7.00066 0.766171 10.8632 1.30889 15.1924 2.9211L10.493 5.10796ZM46.9453 24.3427C46.9453 24.9173 46.6557 26.338 45.2233 26.338C43.791 26.338 43.5013 24.9173 43.5013 24.3427V17.8939C43.5013 16.5051 44.6761 16.154 45.2233 16.154C45.7705 16.154 46.9453 16.4892 46.9453 17.8939V24.3427Z" fill="#737373"/>
</g>
<defs>
<clipPath id="clip0_7322_548">
<rect width="103" height="34" fill="white"/>
</clipPath>
</defs>
</svg>
