<svg width="83" height="59" viewBox="0 0 83 59" fill="none" xmlns="http://www.w3.org/2000/svg">
<g clip-path="url(#clip0_7322_551)">
<path d="M0 0.995265H12.6121V35.0099C12.6121 40.4047 15.0437 43.6154 17.0215 44.9519C14.9627 46.761 8.72148 48.3582 4.02031 44.4955C1.26445 42.2138 0 38.4163 0 34.8795V0.995265ZM78.7689 29.2729V25.6873H82.6272V13.1701H78.3961C76.7588 5.62399 70.0961 0.0173645 62.1365 0.0173645C52.9611 0.0173645 45.4879 7.5146 45.4879 16.7558V45.9624C48.0816 46.3372 51.2266 45.9135 53.8689 43.6806C56.641 41.3989 57.8893 37.6176 57.8893 34.0646V32.9726H64.1791V20.4555H57.8893V16.658C57.8893 11.0187 66.3514 11.0187 66.3514 16.658V29.224C66.3514 38.4489 73.8084 45.9624 83 45.9624V33.4942C80.6494 33.4942 78.7689 31.5873 78.7689 29.2729ZM31.0602 13.1375V31.5547C31.0602 34.0646 27.202 34.0646 27.202 31.5547V13.1375H14.752V34.7654C14.752 38.6444 16.0488 43.5665 22.0469 45.1801C28.0449 46.7773 31.4816 43.4524 31.4816 43.4524C31.1412 45.6364 29.1311 47.25 25.824 47.5759C23.3113 47.8367 20.1178 46.9892 18.5291 46.3047V57.7624C22.598 58.9848 26.8777 59.3596 31.1088 58.5284C38.7441 57.0453 43.5588 50.64 43.5588 42.0997V13.056H31.0602V13.1375Z" fill="#737373"/>
</g>
<defs>
<clipPath id="clip0_7322_551">
<rect width="83" height="59" fill="white"/>
</clipPath>
</defs>
</svg>
