<svg width="76" height="72" viewBox="0 0 76 72" fill="none" xmlns="http://www.w3.org/2000/svg">
<g clip-path="url(#clip0_7322_563)">
<path d="M67.4269 27.6615C65.032 27.6615 62.9244 28.6557 61.3757 30.2111C55.6757 26.2503 47.9958 23.7007 39.4858 23.4281L43.9085 3.41559L57.9908 6.59064C57.9908 10.0543 60.8009 12.8766 64.2496 12.8766C67.7622 12.8766 70.5883 9.97416 70.5883 6.51046C70.5883 3.04677 67.7782 0.144318 64.2496 0.144318C61.7908 0.144318 59.6673 1.63563 58.6135 3.67216L43.0622 0.20846C42.2799 -3.11434e-06 41.5135 0.561244 41.3059 1.34699L36.4522 23.412C28.0059 23.7648 20.4059 26.3145 14.69 30.2753C13.1412 28.6557 10.9538 27.6615 8.55888 27.6615C-0.318433 27.6615 -3.22432 39.624 4.90258 43.7131C4.61518 44.9799 4.48745 46.3269 4.48745 47.6739C4.48745 61.1118 19.5597 72 38.0648 72C56.6496 72 71.7219 61.1118 71.7219 47.6739C71.7219 46.3269 71.5782 44.9158 71.2269 43.649C79.1942 39.5439 76.2563 27.6615 67.4269 27.6615ZM17.7874 44.563C17.7874 41.0352 20.5975 38.1969 24.1261 38.1969C27.5748 38.1969 30.3849 41.0191 30.3849 44.563C30.3849 48.0267 27.5748 50.849 24.1261 50.849C20.6135 50.865 17.7874 48.0267 17.7874 44.563ZM52.0034 59.5563C46.1916 65.3933 29.7942 65.3933 23.9824 59.5563C23.3438 58.9951 23.3438 58.0009 23.9824 57.3595C24.5412 56.7982 25.5311 56.7982 26.09 57.3595C30.5286 61.9296 45.2496 62.0098 49.8799 57.3595C50.4387 56.7982 51.4286 56.7982 51.9874 57.3595C52.6421 58.0009 52.6421 58.9951 52.0034 59.5563ZM51.8757 50.865C48.4269 50.865 45.6169 48.0427 45.6169 44.5791C45.6169 41.0512 48.4269 38.2129 51.8757 38.2129C55.3883 38.2129 58.2143 41.0352 58.2143 44.5791C58.1984 48.0267 55.3883 50.865 51.8757 50.865Z" fill="#737373"/>
</g>
<defs>
<clipPath id="clip0_7322_563">
<rect width="76" height="72" fill="white"/>
</clipPath>
</defs>
</svg>
