<svg width="103" height="42" viewBox="0 0 103 42" fill="none" xmlns="http://www.w3.org/2000/svg">
<g clip-path="url(#clip0_7322_557)">
<path d="M26.5552 3.29318L19.5866 4.75682L19.5544 27.4114C19.5544 31.5955 22.741 34.3 26.9736 34.3C29.3233 34.3 31.0454 33.8705 31.9949 33.3614V27.9841C31.0775 28.35 26.5713 29.6546 26.5713 25.4864V15.4318H31.9949V9.41818H26.5713L26.5552 3.29318ZM40.8947 11.5023L40.4602 9.41818H34.2802V33.7909H41.4097V17.3886C43.0996 15.1932 45.9482 15.6227 46.8655 15.9091V9.41818C45.8999 9.08409 42.5685 8.46364 40.8947 11.5023ZM55.7493 0L48.5714 1.51136V7.27045L55.7493 5.75909V0ZM7.2266 16.5932C7.2266 15.4955 8.16004 15.0659 9.65676 15.05C11.8294 15.05 14.5975 15.7023 16.7702 16.8636V10.2136C14.4044 9.29091 12.0386 8.925 9.67285 8.925C3.8791 8.925 0.0166016 11.9159 0.0166016 16.9114C0.0166016 24.7386 10.8799 23.4659 10.8799 26.8386C10.8799 28.1432 9.73723 28.5727 8.14395 28.5727C5.77816 28.5727 2.72035 27.6023 0.322383 26.3136V32.6773C2.97785 33.8068 5.66551 34.2841 8.12785 34.2841C14.0664 34.2841 18.1543 31.7705 18.1543 26.6796C18.1543 18.2636 7.2266 19.775 7.2266 16.5932ZM103.001 21.8909C103.001 14.6523 99.4599 8.94091 92.6683 8.94091C85.8768 8.94091 81.7407 14.6523 81.7407 21.8432C81.7407 30.3545 86.6171 34.2841 93.5696 34.2841C96.9815 34.2841 99.5404 33.5205 101.488 32.4545V27.1409C99.5404 28.1114 97.3033 28.7 94.4708 28.7C91.6866 28.7 89.2404 27.7295 88.9185 24.4205H102.904C102.936 24.0545 103.001 22.575 103.001 21.8909ZM88.8541 19.2182C88.8541 16.0364 90.8336 14.7 92.6201 14.7C94.3743 14.7 96.2411 16.0364 96.2411 19.2182H88.8541ZM70.6843 8.94091C67.884 8.94091 66.0815 10.2455 65.0836 11.1523L64.7135 9.40227H58.4208V41.9841L65.5665 40.4886L65.5825 32.5023C66.6125 33.25 68.1414 34.2841 70.636 34.2841C75.7538 34.2841 80.421 30.5932 80.421 21.6205C80.4371 13.4114 75.7055 8.94091 70.6843 8.94091ZM68.9783 28.4296C67.3046 28.4296 66.3068 27.825 65.6147 27.0932L65.5665 16.5932C66.3068 15.7818 67.3368 15.1932 68.9783 15.1932C71.5855 15.1932 73.388 18.0886 73.388 21.7795C73.4041 25.5818 71.6338 28.4296 68.9783 28.4296ZM48.5875 33.7909H55.7654V9.41818H48.5875V33.7909Z" fill="#737373"/>
</g>
<defs>
<clipPath id="clip0_7322_557">
<rect width="103" height="42" fill="white"/>
</clipPath>
</defs>
</svg>
